<?xml version="1.0" encoding="iso-8859-1"?>
<!-- Generator: Adobe Illustrator 19.0.0, SVG Export Plug-In . SVG Version: 6.00 Build 0)  -->
<svg version="1.1" id="Capa_1" xmlns="http://www.w3.org/2000/svg" xmlns:xlink="http://www.w3.org/1999/xlink" x="0px" y="0px"
	 viewBox="0 0 512 512" style="enable-background:new 0 0 512 512;" xml:space="preserve">
<circle style="fill:#BFDFE8;" cx="256" cy="223.78" r="216.31"/>
<path style="fill:#97D3DD;" d="M416.325,368.978c-39.579,43.677-96.752,71.107-160.327,71.107
	c-119.462,0-216.307-96.846-216.307-216.307c0-90.071,55.057-167.288,133.353-199.822c-34.786,38.385-55.981,89.314-55.981,145.201
	c0,119.462,96.846,216.307,216.307,216.307C362.762,385.463,390.783,379.602,416.325,368.978z"/>
<polygon style="fill:#9F51BF;" points="391.272,392.679 268.382,392.679 243.615,392.679 120.725,392.679 108.8,504.526 
	243.615,504.526 268.382,504.526 403.196,504.526 "/>
<polygon style="fill:#8842A8;" points="220.74,392.677 208.818,504.526 108.803,504.526 120.725,392.677 "/>
<path d="M479.779,223.779c0-40.317-10.842-79.842-31.355-114.302c-19.914-33.456-48.337-61.288-82.193-80.488
	c-3.591-2.035-8.152-0.777-10.187,2.815c-2.036,3.59-0.776,8.15,2.814,10.187c65.367,37.067,105.974,106.725,105.974,181.788
	c0,64.979-29.852,123.096-76.538,161.427H123.698c-46.684-38.33-76.531-96.45-76.531-161.427
	C47.168,108.628,140.85,14.946,256,14.946c19.214,0,38.243,2.607,56.56,7.748c3.975,1.117,8.1-1.202,9.215-5.176
	c1.116-3.973-1.202-8.099-5.175-9.214C296.968,2.794,276.58,0,256,0C196.227,0,140.031,23.277,97.765,65.544
	c-42.267,42.267-65.544,98.463-65.544,158.236s23.277,115.969,65.544,158.235c4.856,4.856,9.901,9.454,15.11,13.8l-11.506,107.92
	c-0.225,2.108,0.456,4.212,1.874,5.789C104.66,511.1,106.68,512,108.8,512h36.595c4.127,0,7.473-3.345,7.473-7.473
	s-3.346-7.473-7.473-7.473h-28.282l10.331-96.901h257.11l10.331,96.901H199.201c-4.127,0-7.473,3.345-7.473,7.473
	s3.346,7.473,7.473,7.473h203.995c2.12,0,4.14-0.9,5.557-2.476c1.417-1.576,2.098-3.681,1.874-5.789l-11.51-107.955
	c5.207-4.342,10.265-8.912,15.118-13.765C456.502,339.749,479.779,283.553,479.779,223.779z"/>
<path style="fill:#EFDA45;" d="M352.287,117.581c0,0-5.677,38.818-27.067,42.779c21.389,3.961,27.067,42.779,27.067,42.779
	s5.677-38.818,27.067-42.779C357.964,156.398,352.287,117.581,352.287,117.581z"/>
<path d="M352.287,210.607c-0.003,0-0.005,0-0.008,0c-3.706-0.005-6.85-2.721-7.387-6.388c-1.292-8.694-7.931-34.085-21.033-36.511
	c-3.542-0.657-6.112-3.746-6.112-7.349c0-3.602,2.57-6.693,6.113-7.349c13.166-2.438,19.76-27.813,21.033-36.511
	c0.537-3.67,3.685-6.392,7.394-6.392c3.707,0,6.853,2.717,7.393,6.383l0,0c1.293,8.703,7.932,34.094,21.034,36.52
	c3.542,0.656,6.113,3.746,6.113,7.349c0,3.602-2.57,6.692-6.112,7.349c-13.102,2.426-19.742,27.816-21.035,36.52
	C359.136,207.891,355.99,210.607,352.287,210.607z M340.853,160.359c4.941,4.542,8.662,10.547,11.434,16.596
	c2.772-6.049,6.493-12.054,11.434-16.596c-4.941-4.541-8.662-10.546-11.434-16.595C349.515,149.813,345.794,155.818,340.853,160.359
	z"/>
<path style="fill:#EFDA45;" d="M406.42,192.447c0,0-4.318,29.522-20.585,32.534c16.267,3.012,20.585,32.534,20.585,32.534
	s4.318-29.522,20.585-32.534C410.738,221.969,406.42,192.447,406.42,192.447z"/>
<path d="M406.421,264.982c-0.004,0-0.007,0-0.011,0c-3.705-0.005-6.848-2.72-7.384-6.385c-1.18-7.902-6.292-24.738-14.551-26.267
	c-3.542-0.657-6.112-3.746-6.112-7.349c0-3.602,2.57-6.692,6.112-7.349c8.259-1.529,13.371-18.365,14.553-26.279
	c0.547-3.661,3.692-6.375,7.392-6.375c0.004,0,0.008,0,0.011,0c3.702,0.005,6.842,2.714,7.383,6.375l0,0
	c1.182,7.914,6.293,24.749,14.553,26.279c3.542,0.657,6.112,3.746,6.112,7.349c0,3.602-2.57,6.692-6.112,7.349
	c-8.259,1.53-13.371,18.364-14.553,26.278C413.267,262.269,410.122,264.982,406.421,264.982z M400.255,224.981
	c2.451,2.56,4.483,5.553,6.165,8.662c1.681-3.109,3.714-6.102,6.165-8.662c-2.451-2.56-4.484-5.553-6.165-8.662
	C404.739,219.428,402.707,222.421,400.255,224.981z"/>
<g>
</g>
<g>
</g>
<g>
</g>
<g>
</g>
<g>
</g>
<g>
</g>
<g>
</g>
<g>
</g>
<g>
</g>
<g>
</g>
<g>
</g>
<g>
</g>
<g>
</g>
<g>
</g>
<g>
</g>
</svg>
